<?xml version="1.0" encoding="utf-8"?>
<!-- Generator: Adobe Illustrator 28.0.0, SVG Export Plug-In . SVG Version: 6.00 Build 0)  -->
<svg version="1.1" id="Layer_1" xmlns="http://www.w3.org/2000/svg" xmlns:xlink="http://www.w3.org/1999/xlink" x="0px" y="0px"
	 viewBox="0 0 512 512" style="enable-background:new 0 0 512 512;" xml:space="preserve">
<style type="text/css">
	.st0{clip-path:url(#SVGID_00000098929075349233030810000007214801039149639298_);}
</style>
<g>
	<g>
		<defs>
			<rect id="SVGID_1_" width="512" height="512"/>
		</defs>
		<clipPath id="SVGID_00000047032797866711304600000008252618210932412321_">
			<use xlink:href="#SVGID_1_"  style="overflow:visible;"/>
		</clipPath>
		<path style="clip-path:url(#SVGID_00000047032797866711304600000008252618210932412321_);" d="M4.87,178.54
			c0,0-12.47-9.09,2.49-21.22l34.87-31.51c0,0,9.98-10.61,20.52-1.37l321.74,246.22v118.07c0,0-0.16,18.54-23.69,16.49L4.87,178.54z
			"/>
		<path style="clip-path:url(#SVGID_00000047032797866711304600000008252618210932412321_);" d="M87.8,254.65L4.87,330.86
			c0,0-8.52,6.41,0,17.86l38.5,35.4c0,0,9.14,9.93,22.65-1.37l87.92-67.38L87.8,254.65z"/>
		<path style="clip-path:url(#SVGID_00000047032797866711304600000008252618210932412321_);" d="M233.39,255.28l152.09-117.39
			l-0.99-117.44c0,0-6.5-25.63-28.16-12.29L153.94,194.35L233.39,255.28z"/>
		<path style="clip-path:url(#SVGID_00000047032797866711304600000008252618210932412321_);" d="M360.79,505.39
			c8.83,9.14,19.54,6.14,19.54,6.14l118.53-59.03c15.17-10.45,13.04-23.43,13.04-23.43V76.54c0-15.49-15.69-20.85-15.69-20.85
			L393.47,5.64c-22.45-14.02-37.15,2.52-37.15,2.52s18.91-13.76,28.16,12.29v466.13c0,3.2-0.68,6.36-2.03,9.19
			c-2.7,5.51-8.57,10.66-22.66,8.51L360.79,505.39z"/>
	</g>
</g>
</svg>
